<svg id="my-svg" width="100%" xmlns="http://www.w3.org/2000/svg" xmlns:xlink="http://www.w3.org/1999/xlink" class="flowchart" style="max-width: 245.221px; background-color: transparent;" viewBox="0 0 245.22071838378906 73" role="graphics-document document" aria-roledescription="flowchart-v2"><style>#my-svg{font-family:-apple-system,BlinkMacSystemFont,'Segoe UI',Roboto,sans-serif;font-size:14px;fill:#276749;}@keyframes edge-animation-frame{from{stroke-dashoffset:0;}}@keyframes dash{to{stroke-dashoffset:0;}}#my-svg .edge-animation-slow{stroke-dasharray:9,5!important;stroke-dashoffset:900;animation:dash 50s linear infinite;stroke-linecap:round;}#my-svg .edge-animation-fast{stroke-dasharray:9,5!important;stroke-dashoffset:900;animation:dash 20s linear infinite;stroke-linecap:round;}#my-svg .error-icon{fill:#F8F8F8;}#my-svg .error-text{fill:#1A1A1A;stroke:#1A1A1A;}#my-svg .edge-thickness-normal{stroke-width:1px;}#my-svg .edge-thickness-thick{stroke-width:3.5px;}#my-svg .edge-pattern-solid{stroke-dasharray:0;}#my-svg .edge-thickness-invisible{stroke-width:0;fill:none;}#my-svg .edge-pattern-dashed{stroke-dasharray:3;}#my-svg .edge-pattern-dotted{stroke-dasharray:2;}#my-svg .marker{fill:#C0C5CC;stroke:#C0C5CC;}#my-svg .marker.cross{stroke:#C0C5CC;}#my-svg svg{font-family:-apple-system,BlinkMacSystemFont,'Segoe UI',Roboto,sans-serif;font-size:14px;}#my-svg p{margin:0;}#my-svg .label{font-family:-apple-system,BlinkMacSystemFont,'Segoe UI',Roboto,sans-serif;color:#276749;}#my-svg .cluster-label text{fill:#1A1A1A;}#my-svg .cluster-label span{color:#1A1A1A;}#my-svg .cluster-label span p{background-color:transparent;}#my-svg .label text,#my-svg span{fill:#276749;color:#276749;}#my-svg .node rect,#my-svg .node circle,#my-svg .node ellipse,#my-svg .node polygon,#my-svg .node path{fill:#F0FFF4;stroke:#2E9E6B;stroke-width:1px;}#my-svg .rough-node .label text,#my-svg .node .label text,#my-svg .image-shape .label,#my-svg .icon-shape .label{text-anchor:middle;}#my-svg .node .katex path{fill:#000;stroke:#000;stroke-width:1px;}#my-svg .rough-node .label,#my-svg .node .label,#my-svg .image-shape .label,#my-svg .icon-shape .label{text-align:center;}#my-svg .node.clickable{cursor:pointer;}#my-svg .root .anchor path{fill:#C0C5CC!important;stroke-width:0;stroke:#C0C5CC;}#my-svg .arrowheadPath{fill:#0b0b0b;}#my-svg .edgePath .path{stroke:#C0C5CC;stroke-width:1px;}#my-svg .flowchart-link{stroke:#C0C5CC;fill:none;}#my-svg .edgeLabel{background-color:#FFF5F5;text-align:center;}#my-svg .edgeLabel p{background-color:#FFF5F5;}#my-svg .edgeLabel rect{opacity:0.5;background-color:#FFF5F5;fill:#FFF5F5;}#my-svg .labelBkg{background-color:rgba(255, 245, 245, 0.5);}#my-svg .cluster rect{fill:#F8F8F8;stroke:#D4D4D8;stroke-width:1px;}#my-svg .cluster text{fill:#1A1A1A;}#my-svg .cluster span{color:#1A1A1A;}#my-svg div.mermaidTooltip{position:absolute;text-align:center;max-width:200px;padding:2px;font-family:-apple-system,BlinkMacSystemFont,'Segoe UI',Roboto,sans-serif;font-size:12px;background:#F8F8F8;border:1px solid #D4D4D8;border-radius:2px;pointer-events:none;z-index:100;}#my-svg .flowchartTitleText{text-anchor:middle;font-size:18px;fill:#276749;}#my-svg rect.text{fill:none;stroke-width:0;}#my-svg .icon-shape,#my-svg .image-shape{background-color:#FFF5F5;text-align:center;}#my-svg .icon-shape p,#my-svg .image-shape p{background-color:#FFF5F5;padding:2px;}#my-svg .icon-shape .label rect,#my-svg .image-shape .label rect{opacity:0.5;background-color:#FFF5F5;fill:#FFF5F5;}#my-svg .label-icon{display:inline-block;height:1em;overflow:visible;vertical-align:-0.125em;}#my-svg .node .label-icon path{fill:currentColor;stroke:revert;stroke-width:revert;}#my-svg .node .neo-node{stroke:#2E9E6B;}#my-svg [data-look="neo"].node rect,#my-svg [data-look="neo"].cluster rect,#my-svg [data-look="neo"].node polygon{stroke:url(#my-svg-gradient);filter:drop-shadow( 1px 2px 2px rgba(185,185,185,1));}#my-svg [data-look="neo"].node path{stroke:url(#my-svg-gradient);stroke-width:1px;}#my-svg [data-look="neo"].node .outer-path{filter:drop-shadow( 1px 2px 2px rgba(185,185,185,1));}#my-svg [data-look="neo"].node .neo-line path{stroke:#2E9E6B;filter:none;}#my-svg [data-look="neo"].node circle{stroke:url(#my-svg-gradient);filter:drop-shadow( 1px 2px 2px rgba(185,185,185,1));}#my-svg [data-look="neo"].node circle .state-start{fill:#000000;}#my-svg [data-look="neo"].icon-shape .icon{fill:url(#my-svg-gradient);filter:drop-shadow( 1px 2px 2px rgba(185,185,185,1));}#my-svg [data-look="neo"].icon-shape .icon-neo path{stroke:url(#my-svg-gradient);filter:drop-shadow( 1px 2px 2px rgba(185,185,185,1));}#my-svg :root{--mermaid-font-family:"trebuchet ms",verdana,arial,sans-serif;}#my-svg .hub&gt;*{fill:rgb(240, 255, 244)!important;stroke:rgb(46, 158, 107)!important;stroke-width:2px!important;color:rgb(39, 103, 73)!important;}#my-svg .hub span{fill:rgb(240, 255, 244)!important;stroke:rgb(46, 158, 107)!important;stroke-width:2px!important;color:rgb(39, 103, 73)!important;}#my-svg .hub tspan{fill:rgb(39, 103, 73)!important;}#my-svg .actor&gt;*{fill:rgb(255, 255, 255)!important;stroke:rgb(212, 212, 216)!important;stroke-width:1.5px!important;color:rgb(26, 26, 26)!important;}#my-svg .actor span{fill:rgb(255, 255, 255)!important;stroke:rgb(212, 212, 216)!important;stroke-width:1.5px!important;color:rgb(26, 26, 26)!important;}#my-svg .actor tspan{fill:rgb(26, 26, 26)!important;}#my-svg .step&gt;*{fill:rgb(248, 248, 248)!important;stroke:rgb(212, 212, 216)!important;stroke-dasharray:3,3!important;color:rgb(85, 85, 85)!important;}#my-svg .step span{fill:rgb(248, 248, 248)!important;stroke:rgb(212, 212, 216)!important;stroke-dasharray:3,3!important;color:rgb(85, 85, 85)!important;}#my-svg .step tspan{fill:rgb(85, 85, 85)!important;}</style><g><marker id="my-svg_flowchart-v2-pointEnd" class="marker flowchart-v2" viewBox="0 0 10 10" refX="5" refY="5" markerUnits="userSpaceOnUse" markerWidth="8" markerHeight="8" orient="auto"><path d="M 0 0 L 10 5 L 0 10 z" class="arrowMarkerPath" style="stroke-width: 1; stroke-dasharray: 1, 0;"/></marker><marker id="my-svg_flowchart-v2-pointStart" class="marker flowchart-v2" viewBox="0 0 10 10" refX="4.5" refY="5" markerUnits="userSpaceOnUse" markerWidth="8" markerHeight="8" orient="auto"><path d="M 0 5 L 10 10 L 10 0 z" class="arrowMarkerPath" style="stroke-width: 1; stroke-dasharray: 1, 0;"/></marker><marker id="my-svg_flowchart-v2-pointEnd-margin" class="marker flowchart-v2" viewBox="0 0 11.5 14" refX="11.5" refY="7" markerUnits="userSpaceOnUse" markerWidth="10.5" markerHeight="14" orient="auto"><path d="M 0 0 L 11.5 7 L 0 14 z" class="arrowMarkerPath" style="stroke-width: 0; stroke-dasharray: 1, 0;"/></marker><marker id="my-svg_flowchart-v2-pointStart-margin" class="marker flowchart-v2" viewBox="0 0 11.5 14" refX="1" refY="7" markerUnits="userSpaceOnUse" markerWidth="11.5" markerHeight="14" orient="auto"><polygon points="0,7 11.5,14 11.5,0" class="arrowMarkerPath" style="stroke-width: 0; stroke-dasharray: 1, 0;"/></marker><marker id="my-svg_flowchart-v2-circleEnd" class="marker flowchart-v2" viewBox="0 0 10 10" refX="11" refY="5" markerUnits="userSpaceOnUse" markerWidth="11" markerHeight="11" orient="auto"><circle cx="5" cy="5" r="5" class="arrowMarkerPath" style="stroke-width: 1; stroke-dasharray: 1, 0;"/></marker><marker id="my-svg_flowchart-v2-circleStart" class="marker flowchart-v2" viewBox="0 0 10 10" refX="-1" refY="5" markerUnits="userSpaceOnUse" markerWidth="11" markerHeight="11" orient="auto"><circle cx="5" cy="5" r="5" class="arrowMarkerPath" style="stroke-width: 1; stroke-dasharray: 1, 0;"/></marker><marker id="my-svg_flowchart-v2-circleEnd-margin" class="marker flowchart-v2" viewBox="0 0 10 10" refY="5" refX="12.25" markerUnits="userSpaceOnUse" markerWidth="14" markerHeight="14" orient="auto"><circle cx="5" cy="5" r="5" class="arrowMarkerPath" style="stroke-width: 0; stroke-dasharray: 1, 0;"/></marker><marker id="my-svg_flowchart-v2-circleStart-margin" class="marker flowchart-v2" viewBox="0 0 10 10" refX="-2" refY="5" markerUnits="userSpaceOnUse" markerWidth="14" markerHeight="14" orient="auto"><circle cx="5" cy="5" r="5" class="arrowMarkerPath" style="stroke-width: 0; stroke-dasharray: 1, 0;"/></marker><marker id="my-svg_flowchart-v2-crossEnd" class="marker cross flowchart-v2" viewBox="0 0 11 11" refX="12" refY="5.2" markerUnits="userSpaceOnUse" markerWidth="11" markerHeight="11" orient="auto"><path d="M 1,1 l 9,9 M 10,1 l -9,9" class="arrowMarkerPath" style="stroke-width: 2; stroke-dasharray: 1, 0;"/></marker><marker id="my-svg_flowchart-v2-crossStart" class="marker cross flowchart-v2" viewBox="0 0 11 11" refX="-1" refY="5.2" markerUnits="userSpaceOnUse" markerWidth="11" markerHeight="11" orient="auto"><path d="M 1,1 l 9,9 M 10,1 l -9,9" class="arrowMarkerPath" style="stroke-width: 2; stroke-dasharray: 1, 0;"/></marker><marker id="my-svg_flowchart-v2-crossEnd-margin" class="marker cross flowchart-v2" viewBox="0 0 15 15" refX="17.7" refY="7.5" markerUnits="userSpaceOnUse" markerWidth="12" markerHeight="12" orient="auto"><path d="M 1,1 L 14,14 M 1,14 L 14,1" class="arrowMarkerPath" style="stroke-width: 2.5;"/></marker><marker id="my-svg_flowchart-v2-crossStart-margin" class="marker cross flowchart-v2" viewBox="0 0 15 15" refX="-3.5" refY="7.5" markerUnits="userSpaceOnUse" markerWidth="12" markerHeight="12" orient="auto"><path d="M 1,1 L 14,14 M 1,14 L 14,1" class="arrowMarkerPath" style="stroke-width: 2.5; stroke-dasharray: 1, 0;"/></marker><g class="root"><g class="clusters"/><g class="edgePaths"/><g class="edgeLabels"/><g class="nodes"><g class="node default hub" id="my-svg-flowchart-root-0" data-look="classic" transform="translate(122.61035919189453, 36.5)"><g class="basic label-container outer-path"><path d="M-86.125 -28.5 C-41.27560446000805 -28.5, 3.5737910799839057 -28.5, 86.125 -28.5 C86.125 -28.5, 86.125 -28.5, 86.125 -28.5 C86.6644224224471 -28.482701772834172, 87.2038448448942 -28.465403545668345, 87.95100126945032 -28.441443693384585 C88.42125570175642 -28.396078813863713, 88.89151013406253 -28.350713934342846, 89.76949910800842 -28.266015393962515 C90.39839995192206 -28.164339582717446, 91.02730079583569 -28.062663771472376, 91.57302091798911 -27.974435974245367 C92.24926928709131 -27.820086696930808, 92.9255176561935 -27.66573741961625, 93.35415564142096 -27.56790359661234 C93.94711418293066 -27.391916613995157, 94.54007272444035 -27.21592963137798, 95.10558421367318 -27.048088789804055 C95.56026292837426 -26.880762819790096, 96.01494164307533 -26.713436849776137, 96.82010963906217 -26.41712758436162 C97.23745114680484 -26.232382878879903, 97.65479265454752 -26.047638173398184, 98.4906865648504 -25.677612735218947 C99.12462236375856 -25.346888834983815, 99.75855816266673 -25.016164934748687, 100.11045023211221 -24.8325830675166 C100.72546909639605 -24.459755017735713, 101.34048796067991 -24.086926967954824, 101.67274468450063 -23.88551098941746 C102.07991128067417 -23.601489197884668, 102.48707787684772 -23.317467406351874, 103.17115011899966 -22.840288223236765 C103.67202281960584 -22.440855573285674, 104.17289552021201 -22.041422923334583, 104.59950926627197 -21.701209813520336 C104.94515577130824 -21.38730280295177, 105.29080227634451 -21.073395792383202, 105.95195269219937 -20.472956477785235 C106.4173418758257 -19.992403936528483, 106.88273105945203 -19.511851395271727, 107.2229229166465 -19.160575372447536 C107.48214655122985 -18.856076541023263, 107.7413701858132 -18.551577709598995, 108.40719725033885 -17.769459352973907 C108.67557968829567 -17.409851336254867, 108.94396212625247 -17.050243319535824, 109.49990925601324 -16.305324813481842 C109.82620236205011 -15.804050980642, 110.152495468087 -15.302777147802157, 110.49656874565237 -14.774188196849966 C110.67759966991125 -14.452749459459474, 110.85863059417011 -14.131310722068983, 111.3930802316305 -13.182341271863805 C111.68962558371659 -12.566558503202984, 111.98617093580266 -11.950775734542162, 112.18575975595066 -11.536325278988231 C112.34596131081004 -11.140624341199198, 112.50616286566942 -10.744923403410162, 112.87135002841816 -9.842904051007281 C113.09711212190365 -9.162944595733734, 113.32287421538913 -8.482985140460187, 113.44703381154483 -8.109036218984432 C113.54317282145438 -7.742416507288828, 113.63931183136394 -7.375796795593224, 113.91044549718197 -6.341846617754963 C113.98947363024529 -5.936053857076685, 114.06850176330859 -5.530261096398408, 114.25968082731183 -4.548597008451319 C114.30708831527313 -4.180913893490761, 114.35449580323444 -3.813230778530202, 114.49330471905215 -2.7366562383689352 C114.53012408095981 -2.163164956603218, 114.56694344286745 -1.5896736748375004, 114.6103571617196 -0.9134699607921722 C114.6103571617196 -0.2939898192467425, 114.6103571617196 0.32549032229868724, 114.6103571617196 0.9134699607921652 C114.5855050169907 1.300562175235025, 114.5606528722618 1.6876543896778848, 114.49330471905215 2.736656238368916 C114.40824237612355 3.3963829726636003, 114.32318003319494 4.056109706958284, 114.25968082731183 4.548597008451298 C114.18695895541757 4.922008450855253, 114.1142370835233 5.295419893259207, 113.91044549718197 6.341846617754957 C113.77451988654177 6.860189881658349, 113.63859427590157 7.378533145561741, 113.44703381154483 8.109036218984414 C113.32014860802387 8.49119423557778, 113.19326340450293 8.873352252171147, 112.87135002841818 9.842904051007261 C112.64605020858819 10.399398961862994, 112.42075038875822 10.955893872718727, 112.18575975595066 11.536325278988222 C111.96931238323754 11.985782879658883, 111.75286501052442 12.435240480329542, 111.3930802316305 13.182341271863798 C111.092558120583 13.715948711192212, 110.79203600953552 14.249556150520625, 110.49656874565237 14.77418819684996 C110.24984463156456 15.153222690789995, 110.00312051747676 15.532257184730028, 109.49990925601324 16.305324813481825 C109.14583872800617 16.77974706452263, 108.79176819999908 17.254169315563438, 108.40719725033885 17.7694593529739 C108.16417302100086 18.05492944122469, 107.92114879166289 18.340399529475484, 107.2229229166465 19.160575372447518 C106.73765781443284 19.661651431488963, 106.25239271221918 20.162727490530408, 105.95195269219937 20.47295647778523 C105.58474963505843 20.806440578620148, 105.21754657791749 21.139924679455063, 104.599509266272 21.701209813520315 C104.22556800693701 21.999418016845137, 103.85162674760203 22.29762622016996, 103.17115011899966 22.84028822323676 C102.8653380109928 23.05360951138956, 102.55952590298594 23.26693079954236, 101.67274468450066 23.88551098941745 C101.11618532136512 24.222900546056074, 100.55962595822957 24.560290102694697, 100.11045023211223 24.832583067516598 C99.54445126318659 25.127864367065463, 98.97845229426095 25.423145666614328, 98.4906865648504 25.677612735218943 C98.00551297145921 25.89238469284993, 97.52033937806802 26.107156650480917, 96.82010963906217 26.417127584361616 C96.33566656705894 26.59540711300147, 95.85122349505572 26.773686641641326, 95.10558421367321 27.04808878980405 C94.52307968082482 27.220973077524764, 93.94057514797645 27.393857365245477, 93.35415564142099 27.567903596612332 C92.86568854795011 27.679393023151384, 92.37722145447923 27.790882449690436, 91.57302091798911 27.974435974245363 C91.10815883828117 28.04959127023327, 90.64329675857324 28.12474656622118, 89.76949910800843 28.266015393962512 C89.26908815410154 28.314289436853688, 88.76867720019465 28.362563479744864, 87.95100126945032 28.441443693384585 C87.3573285886604 28.460481620743746, 86.76365590787049 28.479519548102907, 86.125 28.5 C86.125 28.5, 86.125 28.5, 86.125 28.5 C42.601668289196965 28.5, -0.9216634216060697 28.5, -86.125 28.5 C-86.74976481606049 28.47996500837988, -87.37452963212097 28.459930016759763, -87.9510012694503 28.441443693384585 C-88.31771479649909 28.40606728046773, -88.68442832354786 28.370690867550877, -89.76949910800843 28.266015393962512 C-90.37822171424779 28.16760184370005, -90.98694432048713 28.069188293437588, -91.57302091798911 27.974435974245363 C-92.1071705650427 27.85251980295758, -92.64132021209626 27.7306036316698, -93.35415564142095 27.56790359661234 C-93.83227031557739 27.426001670997845, -94.31038498973385 27.284099745383347, -95.10558421367317 27.048088789804062 C-95.75198233834692 26.810208304685357, -96.39838046302069 26.572327819566656, -96.82010963906217 26.41712758436162 C-97.18457370608421 26.25579015333338, -97.54903777310625 26.09445272230514, -98.4906865648504 25.67761273521895 C-98.99595159182947 25.414016294281666, -99.50121661880854 25.15041985334438, -100.11045023211221 24.832583067516605 C-100.61967718068024 24.523886698744946, -101.12890412924827 24.21519032997329, -101.67274468450061 23.88551098941747 C-102.02178086261013 23.642038461100896, -102.37081704071966 23.398565932784326, -103.17115011899965 22.840288223236765 C-103.47913965559323 22.594674763749165, -103.78712919218681 22.34906130426156, -104.59950926627197 21.701209813520336 C-105.09760320745586 21.248854074980624, -105.59569714863976 20.796498336440912, -105.95195269219934 20.47295647778525 C-106.2534363906704 20.161649806841915, -106.55492008914145 19.850343135898576, -107.2229229166465 19.16057537244753 C-107.63366083672928 18.678099239868544, -108.04439875681207 18.195623107289556, -108.40719725033884 17.76945935297391 C-108.66286231247308 17.426891461280345, -108.91852737460732 17.08432356958678, -109.49990925601324 16.305324813481846 C-109.76993798798034 15.890488168313091, -110.03996671994743 15.475651523144334, -110.49656874565235 14.77418819684998 C-110.72860211884333 14.362189446822557, -110.96063549203431 13.950190696795133, -111.3930802316305 13.182341271863809 C-111.64552324728118 12.658137948449957, -111.89796626293183 12.133934625036106, -112.18575975595066 11.536325278988233 C-112.44278685958724 10.901463363724861, -112.69981396322383 10.26660144846149, -112.87135002841816 9.842904051007284 C-112.98999593157635 9.485561494352353, -113.10864183473453 9.128218937697422, -113.44703381154483 8.109036218984425 C-113.62640541433414 7.425014557404358, -113.80577701712346 6.7409928958242915, -113.91044549718197 6.3418466177549675 C-114.04533534843344 5.64921574055884, -114.1802251996849 4.956584863362712, -114.25968082731183 4.548597008451321 C-114.34321153912256 3.9007493026520077, -114.4267422509333 3.252901596852694, -114.49330471905215 2.7366562383689517 C-114.53794001684467 2.041425446286597, -114.58257531463718 1.346194654204242, -114.6103571617196 0.9134699607921758 C-114.6103571617196 0.24787830006996747, -114.6103571617196 -0.41771336065224085, -114.6103571617196 -0.9134699607921619 C-114.56931801039114 -1.5526878689397388, -114.52827885906267 -2.1919057770873156, -114.49330471905215 -2.7366562383689126 C-114.42196021170724 -3.289990148769454, -114.35061570436235 -3.843324059169996, -114.25968082731183 -4.548597008451308 C-114.14018501308247 -5.16218275906973, -114.02068919885313 -5.775768509688153, -113.91044549718197 -6.341846617754954 C-113.76106537471584 -6.911497766472899, -113.61168525224971 -7.481148915190845, -113.44703381154483 -8.10903621898441 C-113.29684220863925 -8.561389397153842, -113.14665060573365 -9.013742575323276, -112.87135002841818 -9.842904051007247 C-112.73214337372863 -10.186747179467982, -112.5929367190391 -10.530590307928719, -112.18575975595066 -11.536325278988219 C-112.02545887509474 -11.869193487974911, -111.86515799423883 -12.202061696961604, -111.3930802316305 -13.182341271863795 C-111.19392715709006 -13.535957722145929, -110.99477408254961 -13.88957417242806, -110.49656874565237 -14.77418819684997 C-110.11753459355405 -15.35648643939405, -109.73850044145573 -15.938784681938131, -109.49990925601324 -16.305324813481835 C-109.15355876659682 -16.769402916121145, -108.8072082771804 -17.233481018760457, -108.40719725033885 -17.7694593529739 C-108.01459303451931 -18.23063460468827, -107.62198881869978 -18.69180985640264, -107.2229229166465 -19.160575372447518 C-106.85837671213406 -19.536999258406617, -106.49383050762162 -19.913423144365716, -105.95195269219937 -20.47295647778522 C-105.67479264764663 -20.72466589699509, -105.3976326030939 -20.97637531620496, -104.599509266272 -21.70120981352031 C-104.28331257677434 -21.953368259047405, -103.96711588727668 -22.205526704574503, -103.17115011899966 -22.840288223236758 C-102.5829923327246 -23.25056163400203, -101.99483454644955 -23.660835044767303, -101.67274468450066 -23.885510989417448 C-101.32052490481551 -24.09902868973576, -100.96830512513037 -24.31254639005407, -100.11045023211223 -24.832583067516595 C-99.73927290256094 -25.026226042593077, -99.36809557300965 -25.219869017669556, -98.49068656485042 -25.677612735218943 C-97.93496190406842 -25.923615557560787, -97.3792372432864 -26.169618379902634, -96.82010963906218 -26.417127584361612 C-96.24762491008462 -26.62780725661618, -95.67514018110705 -26.838486928870747, -95.10558421367321 -27.04808878980405 C-94.4832747453029 -27.232786973447304, -93.86096527693257 -27.417485157090553, -93.35415564142099 -27.56790359661233 C-92.94419385640715 -27.661474698791075, -92.53423207139332 -27.75504580096982, -91.57302091798913 -27.97443597424536 C-91.0647650051096 -28.056606848656248, -90.55650909223007 -28.13877772306714, -89.76949910800845 -28.266015393962512 C-89.04620892476677 -28.33579032805612, -88.32291874152511 -28.405565262149732, -87.95100126945032 -28.441443693384585 C-87.2510800852621 -28.463888803447563, -86.55115890107388 -28.486333913510542, -86.12500000000001 -28.5 C-86.12500000000001 -28.5, -86.12500000000001 -28.5, -86.125 -28.5" stroke="none" stroke-width="0" fill="#F0FFF4" style="fill:#F0FFF4 !important;stroke:#2E9E6B !important;stroke-width:2px !important"/><path d="M-86.125 -28.5 C-27.778079406260538 -28.5, 30.568841187478924 -28.5, 86.125 -28.5 M-86.125 -28.5 C-47.8385084771315 -28.5, -9.552016954262996 -28.5, 86.125 -28.5 M86.125 -28.5 C86.125 -28.5, 86.125 -28.5, 86.125 -28.5 M86.125 -28.5 C86.125 -28.5, 86.125 -28.5, 86.125 -28.5 M86.125 -28.5 C86.71391254921265 -28.48111472079549, 87.30282509842532 -28.462229441590978, 87.95100126945032 -28.441443693384585 M86.125 -28.5 C86.54175598545112 -28.4866354467129, 86.95851197090225 -28.473270893425795, 87.95100126945032 -28.441443693384585 M87.95100126945032 -28.441443693384585 C88.32986064662475 -28.404895584913632, 88.7087200237992 -28.368347476442676, 89.76949910800842 -28.266015393962515 M87.95100126945032 -28.441443693384585 C88.46919066787177 -28.3914545853328, 88.98738006629324 -28.341465477281012, 89.76949910800842 -28.266015393962515 M89.76949910800842 -28.266015393962515 C90.22200206536677 -28.192858225029664, 90.67450502272511 -28.11970105609681, 91.57302091798911 -27.974435974245367 M89.76949910800842 -28.266015393962515 C90.37884302836956 -28.167501394451204, 90.9881869487307 -28.068987394939896, 91.57302091798911 -27.974435974245367 M91.57302091798911 -27.974435974245367 C92.16271244728395 -27.83984273078067, 92.7524039765788 -27.70524948731597, 93.35415564142096 -27.56790359661234 M91.57302091798911 -27.974435974245367 C91.98485520132401 -27.880437486544032, 92.3966894846589 -27.786438998842698, 93.35415564142096 -27.56790359661234 M93.35415564142096 -27.56790359661234 C93.8005576455524 -27.43541382499806, 94.24695964968384 -27.302924053383784, 95.10558421367318 -27.048088789804055 M93.35415564142096 -27.56790359661234 C93.76808860217368 -27.445050466639383, 94.1820215629264 -27.322197336666424, 95.10558421367318 -27.048088789804055 M95.10558421367318 -27.048088789804055 C95.61381444719811 -26.861055365838105, 96.12204468072304 -26.674021941872155, 96.82010963906217 -26.41712758436162 M95.10558421367318 -27.048088789804055 C95.50408621119934 -26.901436371002347, 95.90258820872549 -26.75478395220064, 96.82010963906217 -26.41712758436162 M96.82010963906217 -26.41712758436162 C97.18830999524495 -26.254136208954996, 97.55651035142775 -26.091144833548373, 98.4906865648504 -25.677612735218947 M96.82010963906217 -26.41712758436162 C97.44859344437886 -26.13891644705761, 98.07707724969553 -25.8607053097536, 98.4906865648504 -25.677612735218947 M98.4906865648504 -25.677612735218947 C99.1368364177463 -25.34051677084189, 99.7829862706422 -25.003420806464835, 100.11045023211221 -24.8325830675166 M98.4906865648504 -25.677612735218947 C98.98721961305591 -25.418571762014732, 99.4837526612614 -25.159530788810518, 100.11045023211221 -24.8325830675166 M100.11045023211221 -24.8325830675166 C100.62781697426027 -24.518952308041996, 101.14518371640833 -24.20532154856739, 101.67274468450063 -23.88551098941746 M100.11045023211221 -24.8325830675166 C100.63612057138624 -24.513918618666878, 101.16179091066027 -24.19525416981715, 101.67274468450063 -23.88551098941746 M101.67274468450063 -23.88551098941746 C101.98197136081272 -23.669807846229215, 102.29119803712481 -23.45410470304097, 103.17115011899966 -22.840288223236765 M101.67274468450063 -23.88551098941746 C102.12670916267993 -23.568845021245114, 102.58067364085923 -23.25217905307277, 103.17115011899966 -22.840288223236765 M103.17115011899966 -22.840288223236765 C103.52124159149565 -22.561099590246553, 103.87133306399166 -22.28191095725634, 104.59950926627197 -21.701209813520336 M103.17115011899966 -22.840288223236765 C103.48882427067682 -22.586951540938443, 103.80649842235397 -22.333614858640118, 104.59950926627197 -21.701209813520336 M104.59950926627197 -21.701209813520336 C105.01585681723901 -21.323093983684608, 105.43220436820606 -20.94497815384888, 105.95195269219937 -20.472956477785235 M104.59950926627197 -21.701209813520336 C104.96202224089356 -21.371985121536717, 105.32453521551514 -21.0427604295531, 105.95195269219937 -20.472956477785235 M105.95195269219937 -20.472956477785235 C106.32414680281131 -20.08863550087363, 106.69634091342326 -19.704314523962022, 107.2229229166465 -19.160575372447536 M105.95195269219937 -20.472956477785235 C106.30470325163274 -20.108712563810748, 106.6574538110661 -19.744468649836257, 107.2229229166465 -19.160575372447536 M107.2229229166465 -19.160575372447536 C107.57750013589778 -18.744068794699633, 107.93207735514908 -18.32756221695173, 108.40719725033885 -17.769459352973907 M107.2229229166465 -19.160575372447536 C107.61111020596468 -18.70458849393189, 107.99929749528287 -18.248601615416245, 108.40719725033885 -17.769459352973907 M108.40719725033885 -17.769459352973907 C108.79136534876295 -17.254709099519374, 109.17553344718704 -16.73995884606484, 109.49990925601324 -16.305324813481842 M108.40719725033885 -17.769459352973907 C108.68183132717628 -17.40147470969085, 108.95646540401373 -17.033490066407786, 109.49990925601324 -16.305324813481842 M109.49990925601324 -16.305324813481842 C109.7686673751523 -15.892440170824266, 110.03742549429137 -15.479555528166687, 110.49656874565237 -14.774188196849966 M109.49990925601324 -16.305324813481842 C109.84105174628512 -15.78123833883906, 110.18219423655698 -15.257151864196278, 110.49656874565237 -14.774188196849966 M110.49656874565237 -14.774188196849966 C110.8478322918002 -14.150484201373443, 111.19909583794804 -13.52678020589692, 111.3930802316305 -13.182341271863805 M110.49656874565237 -14.774188196849966 C110.68833929178317 -14.433680173321218, 110.88010983791398 -14.093172149792471, 111.3930802316305 -13.182341271863805 M111.3930802316305 -13.182341271863805 C111.62104830040948 -12.708960699308996, 111.84901636918845 -12.235580126754185, 112.18575975595066 -11.536325278988231 M111.3930802316305 -13.182341271863805 C111.66662480929033 -12.614320103436837, 111.94016938695016 -12.046298935009867, 112.18575975595066 -11.536325278988231 M112.18575975595066 -11.536325278988231 C112.34608176634937 -11.140326813688207, 112.50640377674807 -10.74432834838818, 112.87135002841816 -9.842904051007281 M112.18575975595066 -11.536325278988231 C112.34569956460378 -11.14127085938918, 112.5056393732569 -10.746216439790132, 112.87135002841816 -9.842904051007281 M112.87135002841816 -9.842904051007281 C113.04596627316056 -9.316987743163597, 113.22058251790294 -8.791071435319912, 113.44703381154483 -8.109036218984432 M112.87135002841816 -9.842904051007281 C113.05746174002924 -9.282365228509045, 113.2435734516403 -8.721826406010809, 113.44703381154483 -8.109036218984432 M113.44703381154483 -8.109036218984432 C113.55443454269839 -7.699470683324546, 113.66183527385196 -7.28990514766466, 113.91044549718197 -6.341846617754963 M113.44703381154483 -8.109036218984432 C113.61554667586398 -7.466423633398103, 113.78405954018314 -6.823811047811773, 113.91044549718197 -6.341846617754963 M113.91044549718197 -6.341846617754963 C114.04947828821437 -5.627942620394355, 114.18851107924678 -4.914038623033746, 114.25968082731183 -4.548597008451319 M113.91044549718197 -6.341846617754963 C114.02267057405241 -5.765594566803628, 114.13489565092286 -5.189342515852292, 114.25968082731183 -4.548597008451319 M114.25968082731183 -4.548597008451319 C114.309726165605 -4.160455247219343, 114.35977150389816 -3.772313485987367, 114.49330471905215 -2.7366562383689352 M114.25968082731183 -4.548597008451319 C114.3224094657758 -4.062086075695394, 114.3851381042398 -3.5755751429394698, 114.49330471905215 -2.7366562383689352 M114.49330471905215 -2.7366562383689352 C114.51868878775271 -2.341278878706296, 114.54407285645327 -1.9459015190436573, 114.6103571617196 -0.9134699607921722 M114.49330471905215 -2.7366562383689352 C114.52252542485235 -2.281520159001699, 114.55174613065255 -1.8263840796344621, 114.6103571617196 -0.9134699607921722 M114.6103571617196 -0.9134699607921722 C114.6103571617196 -0.42056146713290726, 114.6103571617196 0.07234702652635772, 114.6103571617196 0.9134699607921652 M114.6103571617196 -0.9134699607921722 C114.6103571617196 -0.3287324708218715, 114.6103571617196 0.2560050191484292, 114.6103571617196 0.9134699607921652 M114.6103571617196 0.9134699607921652 C114.56843150106458 1.5664959672783012, 114.52650584040956 2.2195219737644374, 114.49330471905215 2.736656238368916 M114.6103571617196 0.9134699607921652 C114.56414791254173 1.633216316172101, 114.51793866336386 2.352962671552037, 114.49330471905215 2.736656238368916 M114.49330471905215 2.736656238368916 C114.4025709381287 3.4403695257994737, 114.31183715720528 4.144082813230031, 114.25968082731183 4.548597008451298 M114.49330471905215 2.736656238368916 C114.4189572178531 3.3132807760939897, 114.34460971665406 3.889905313819064, 114.25968082731183 4.548597008451298 M114.25968082731183 4.548597008451298 C114.16523695119552 5.03354635158819, 114.07079307507924 5.518495694725082, 113.91044549718197 6.341846617754957 M114.25968082731183 4.548597008451298 C114.14277504151597 5.148883510466388, 114.02586925572014 5.749170012481478, 113.91044549718197 6.341846617754957 M113.91044549718197 6.341846617754957 C113.81118996627225 6.720350974732939, 113.71193443536252 7.098855331710921, 113.44703381154483 8.109036218984414 M113.91044549718197 6.341846617754957 C113.77420225416908 6.86140115155814, 113.6379590111562 7.380955685361323, 113.44703381154483 8.109036218984414 M113.44703381154483 8.109036218984414 C113.27672596636705 8.621976313789737, 113.10641812118928 9.13491640859506, 112.87135002841818 9.842904051007261 M113.44703381154483 8.109036218984414 C113.24407567468171 8.720313790228468, 113.0411175378186 9.331591361472523, 112.87135002841818 9.842904051007261 M112.87135002841818 9.842904051007261 C112.65792775086871 10.37006120279347, 112.44450547331925 10.897218354579678, 112.18575975595066 11.536325278988222 M112.87135002841818 9.842904051007261 C112.71316654301079 10.23362031823316, 112.5549830576034 10.62433658545906, 112.18575975595066 11.536325278988222 M112.18575975595066 11.536325278988222 C111.94668522857707 12.032768650454898, 111.70761070120348 12.529212021921575, 111.3930802316305 13.182341271863798 M112.18575975595066 11.536325278988222 C111.91651277975161 12.095422386027934, 111.64726580355257 12.654519493067644, 111.3930802316305 13.182341271863798 M111.3930802316305 13.182341271863798 C111.12906150701194 13.651133252218951, 110.86504278239337 14.119925232574106, 110.49656874565237 14.77418819684996 M111.3930802316305 13.182341271863798 C111.17470620067172 13.570086476599576, 110.95633216971294 13.957831681335353, 110.49656874565237 14.77418819684996 M110.49656874565237 14.77418819684996 C110.12172675171865 15.350046158701113, 109.74688475778495 15.925904120552266, 109.49990925601324 16.305324813481825 M110.49656874565237 14.77418819684996 C110.14552040456674 15.313492718436056, 109.79447206348112 15.852797240022149, 109.49990925601324 16.305324813481825 M109.49990925601324 16.305324813481825 C109.12893097347356 16.802401915268188, 108.75795269093389 17.29947901705455, 108.40719725033885 17.7694593529739 M109.49990925601324 16.305324813481825 C109.17029189760356 16.74698204499169, 108.8406745391939 17.18863927650155, 108.40719725033885 17.7694593529739 M108.40719725033885 17.7694593529739 C108.04076904739132 18.199886770511473, 107.6743408444438 18.63031418804905, 107.2229229166465 19.160575372447518 M108.40719725033885 17.7694593529739 C108.16685997261204 18.051773194970323, 107.92652269488524 18.334087036966746, 107.2229229166465 19.160575372447518 M107.2229229166465 19.160575372447518 C106.89091824405509 19.5033974549887, 106.55891357146368 19.846219537529883, 105.95195269219937 20.47295647778523 M107.2229229166465 19.160575372447518 C106.861946761431 19.53331288940104, 106.50097060621549 19.906050406354556, 105.95195269219937 20.47295647778523 M105.95195269219937 20.47295647778523 C105.54618015104376 20.84146836350965, 105.14040760988813 21.20998024923407, 104.599509266272 21.701209813520315 M105.95195269219937 20.47295647778523 C105.44735274353779 20.931220800176643, 104.94275279487623 21.389485122568054, 104.599509266272 21.701209813520315 M104.599509266272 21.701209813520315 C104.24117747086837 21.986969884745157, 103.88284567546475 22.272729955970004, 103.17115011899966 22.84028822323676 M104.599509266272 21.701209813520315 C104.21923841293557 22.004465699623722, 103.83896755959913 22.30772158572713, 103.17115011899966 22.84028822323676 M103.17115011899966 22.84028822323676 C102.86140275032739 23.056354578875062, 102.55165538165511 23.272420934513363, 101.67274468450066 23.88551098941745 M103.17115011899966 22.84028822323676 C102.61233982201323 23.23009009590663, 102.05352952502679 23.619891968576496, 101.67274468450066 23.88551098941745 M101.67274468450066 23.88551098941745 C101.14977250696224 24.20253979676689, 100.62680032942382 24.51956860411633, 100.11045023211223 24.832583067516598 M101.67274468450066 23.88551098941745 C101.18765782685598 24.179573493208444, 100.70257096921132 24.47363599699944, 100.11045023211223 24.832583067516598 M100.11045023211223 24.832583067516598 C99.51443330350521 25.143524717403817, 98.91841637489819 25.454466367291033, 98.4906865648504 25.677612735218943 M100.11045023211223 24.832583067516598 C99.72015359400342 25.036200573621034, 99.32985695589461 25.23981807972547, 98.4906865648504 25.677612735218943 M98.4906865648504 25.677612735218943 C97.99385915762153 25.897543490537767, 97.49703175039265 26.117474245856595, 96.82010963906217 26.417127584361616 M98.4906865648504 25.677612735218943 C97.98949058685841 25.899477327225554, 97.48829460886641 26.121341919232165, 96.82010963906217 26.417127584361616 M96.82010963906217 26.417127584361616 C96.38844571557334 26.575983898463072, 95.95678179208453 26.734840212564524, 95.10558421367321 27.04808878980405 M96.82010963906217 26.417127584361616 C96.1616786147159 26.65943628779071, 95.50324759036963 26.90174499121981, 95.10558421367321 27.04808878980405 M95.10558421367321 27.04808878980405 C94.70712131181838 27.16635048750011, 94.30865840996356 27.28461218519617, 93.35415564142099 27.567903596612332 M95.10558421367321 27.04808878980405 C94.41832121715544 27.252064839653443, 93.73105822063766 27.45604088950283, 93.35415564142099 27.567903596612332 M93.35415564142099 27.567903596612332 C92.9559525815505 27.65879084650996, 92.55774952168002 27.74967809640759, 91.57302091798911 27.974435974245363 M93.35415564142099 27.567903596612332 C92.68291886063545 27.72110901159728, 92.01168207984993 27.87431442658223, 91.57302091798911 27.974435974245363 M91.57302091798911 27.974435974245363 C91.0696517128045 28.055816803653123, 90.56628250761989 28.137197633060882, 89.76949910800843 28.266015393962512 M91.57302091798911 27.974435974245363 C91.17723025782551 28.038424338778203, 90.7814395976619 28.102412703311042, 89.76949910800843 28.266015393962512 M89.76949910800843 28.266015393962512 C89.18695115837687 28.322213094047054, 88.60440320874531 28.3784107941316, 87.95100126945032 28.441443693384585 M89.76949910800843 28.266015393962512 C89.1644212133787 28.324386530744807, 88.55934331874897 28.382757667527102, 87.95100126945032 28.441443693384585 M87.95100126945032 28.441443693384585 C87.5518433704642 28.454243910291353, 87.1526854714781 28.46704412719812, 86.125 28.5 M87.95100126945032 28.441443693384585 C87.23789145378458 28.464311737188932, 86.52478163811885 28.48717978099328, 86.125 28.5 M86.125 28.5 C86.125 28.5, 86.125 28.5, 86.125 28.5 M86.125 28.5 C86.125 28.5, 86.125 28.5, 86.125 28.5 M86.125 28.5 C30.127704134308786 28.5, -25.869591731382428 28.5, -86.125 28.5 M86.125 28.5 C19.74282903840711 28.5, -46.63934192318578 28.5, -86.125 28.5 M-86.125 28.5 C-86.68810699909668 28.481942254560252, -87.25121399819335 28.463884509120504, -87.9510012694503 28.441443693384585 M-86.125 28.5 C-86.72349347259066 28.48080747923089, -87.32198694518131 28.461614958461784, -87.9510012694503 28.441443693384585 M-87.9510012694503 28.441443693384585 C-88.46956984923509 28.39141800616271, -88.98813842901986 28.341392318940837, -89.76949910800843 28.266015393962512 M-87.9510012694503 28.441443693384585 C-88.6409177495021 28.374888280299952, -89.33083422955387 28.30833286721532, -89.76949910800843 28.266015393962512 M-89.76949910800843 28.266015393962512 C-90.23344080594381 28.191008898161922, -90.6973825038792 28.11600240236133, -91.57302091798911 27.974435974245363 M-89.76949910800843 28.266015393962512 C-90.302718946793 28.179808545609433, -90.83593878557754 28.093601697256357, -91.57302091798911 27.974435974245363 M-91.57302091798911 27.974435974245363 C-92.13593873883597 27.845953655019144, -92.69885655968284 27.717471335792922, -93.35415564142095 27.56790359661234 M-91.57302091798911 27.974435974245363 C-92.10770690145709 27.852397387670916, -92.64239288492507 27.730358801096468, -93.35415564142095 27.56790359661234 M-93.35415564142095 27.56790359661234 C-94.0509317126416 27.361104116126285, -94.74770778386225 27.154304635640226, -95.10558421367317 27.048088789804062 M-93.35415564142095 27.56790359661234 C-93.98826356411111 27.37970369365831, -94.62237148680127 27.191503790704278, -95.10558421367317 27.048088789804062 M-95.10558421367317 27.048088789804062 C-95.68346860462611 26.83542199202863, -96.26135299557906 26.622755194253195, -96.82010963906217 26.41712758436162 M-95.10558421367317 27.048088789804062 C-95.47496860145263 26.91215192054937, -95.8443529892321 26.776215051294674, -96.82010963906217 26.41712758436162 M-96.82010963906217 26.41712758436162 C-97.24499493310157 26.229043468464816, -97.66988022714095 26.040959352568013, -98.4906865648504 25.67761273521895 M-96.82010963906217 26.41712758436162 C-97.33224349158986 26.190421119758575, -97.84437734411756 25.96371465515553, -98.4906865648504 25.67761273521895 M-98.4906865648504 25.67761273521895 C-99.00853313460851 25.4074525114727, -99.52637970436662 25.137292287726453, -100.11045023211221 24.832583067516605 M-98.4906865648504 25.67761273521895 C-99.08394065235794 25.368112457763647, -99.67719473986547 25.058612180308344, -100.11045023211221 24.832583067516605 M-100.11045023211221 24.832583067516605 C-100.57677635146256 24.54989343352997, -101.04310247081288 24.26720379954333, -101.67274468450061 23.88551098941747 M-100.11045023211221 24.832583067516605 C-100.70119269550254 24.474471514621328, -101.29193515889288 24.11635996172605, -101.67274468450061 23.88551098941747 M-101.67274468450061 23.88551098941747 C-102.15675012017965 23.547889749745394, -102.64075555585869 23.21026851007332, -103.17115011899965 22.840288223236765 M-101.67274468450061 23.88551098941747 C-101.97770788755192 23.67278186061317, -102.28267109060322 23.460052731808872, -103.17115011899965 22.840288223236765 M-103.17115011899965 22.840288223236765 C-103.6703421631273 22.442195852103158, -104.16953420725494 22.04410348096955, -104.59950926627197 21.701209813520336 M-103.17115011899965 22.840288223236765 C-103.63605774776246 22.469536761009998, -104.1009653765253 22.09878529878323, -104.59950926627197 21.701209813520336 M-104.59950926627197 21.701209813520336 C-105.0197132572623 21.319591666891267, -105.43991724825264 20.937973520262194, -105.95195269219934 20.47295647778525 M-104.59950926627197 21.701209813520336 C-104.8873326771635 21.439816207138787, -105.17515608805503 21.178422600757237, -105.95195269219934 20.47295647778525 M-105.95195269219934 20.47295647778525 C-106.24112962483137 20.174357552974975, -106.5303065574634 19.875758628164697, -107.2229229166465 19.16057537244753 M-105.95195269219934 20.47295647778525 C-106.24738011316592 20.167903410594917, -106.5428075341325 19.86285034340458, -107.2229229166465 19.16057537244753 M-107.2229229166465 19.16057537244753 C-107.68828806598951 18.613930988002075, -108.15365321533253 18.067286603556624, -108.40719725033884 17.76945935297391 M-107.2229229166465 19.16057537244753 C-107.55992947862073 18.764708288535978, -107.89693604059497 18.368841204624427, -108.40719725033884 17.76945935297391 M-108.40719725033884 17.76945935297391 C-108.71797809567677 17.353041332938545, -109.0287589410147 16.936623312903176, -109.49990925601324 16.305324813481846 M-108.40719725033884 17.76945935297391 C-108.77470258192676 17.27703568907056, -109.1422079135147 16.78461202516721, -109.49990925601324 16.305324813481846 M-109.49990925601324 16.305324813481846 C-109.85901534783166 15.75364142296114, -110.21812143965008 15.201958032440436, -110.49656874565235 14.77418819684998 M-109.49990925601324 16.305324813481846 C-109.7986047991291 15.846448248271969, -110.09730034224495 15.387571683062092, -110.49656874565235 14.77418819684998 M-110.49656874565235 14.77418819684998 C-110.83071339189361 14.180880541634163, -111.16485803813488 13.587572886418348, -111.3930802316305 13.182341271863809 M-110.49656874565235 14.77418819684998 C-110.75875829504511 14.30864410233232, -111.02094784443788 13.843100007814659, -111.3930802316305 13.182341271863809 M-111.3930802316305 13.182341271863809 C-111.66004309859225 12.627987166527442, -111.927005965554 12.073633061191073, -112.18575975595066 11.536325278988233 M-111.3930802316305 13.182341271863809 C-111.68767686114951 12.570605067309488, -111.98227349066853 11.958868862755168, -112.18575975595066 11.536325278988233 M-112.18575975595066 11.536325278988233 C-112.37067389364724 11.079583783806042, -112.55558803134382 10.622842288623849, -112.87135002841816 9.842904051007284 M-112.18575975595066 11.536325278988233 C-112.38217299916538 11.05118077085613, -112.57858624238011 10.566036262724026, -112.87135002841816 9.842904051007284 M-112.87135002841816 9.842904051007284 C-113.06083468535337 9.272206454598585, -113.25031934228859 8.701508858189888, -113.44703381154483 8.109036218984425 M-112.87135002841816 9.842904051007284 C-113.08013318982921 9.214082433916493, -113.28891635124026 8.585260816825702, -113.44703381154483 8.109036218984425 M-113.44703381154483 8.109036218984425 C-113.54031215681694 7.7533254613712845, -113.63359050208905 7.397614703758143, -113.91044549718197 6.3418466177549675 M-113.44703381154483 8.109036218984425 C-113.61112378167509 7.483290045834797, -113.77521375180537 6.857543872685167, -113.91044549718197 6.3418466177549675 M-113.91044549718197 6.3418466177549675 C-113.98982389837134 5.934255304278557, -114.06920229956071 5.526663990802147, -114.25968082731183 4.548597008451321 M-113.91044549718197 6.3418466177549675 C-114.00984580460093 5.831447047420998, -114.1092461120199 5.321047477087027, -114.25968082731183 4.548597008451321 M-114.25968082731183 4.548597008451321 C-114.32367720534202 4.052253737963316, -114.38767358337223 3.5559104674753095, -114.49330471905215 2.7366562383689517 M-114.25968082731183 4.548597008451321 C-114.33093064306713 3.9959975073206664, -114.40218045882244 3.4433980061900114, -114.49330471905215 2.7366562383689517 M-114.49330471905215 2.7366562383689517 C-114.5225913425223 2.2804934380843567, -114.55187796599245 1.8243306377997617, -114.6103571617196 0.9134699607921758 M-114.49330471905215 2.7366562383689517 C-114.52034038398278 2.3155539342783404, -114.54737604891342 1.8944516301877294, -114.6103571617196 0.9134699607921758 M-114.6103571617196 0.9134699607921758 C-114.6103571617196 0.4506487965321771, -114.6103571617196 -0.012172367727821598, -114.6103571617196 -0.9134699607921619 M-114.6103571617196 0.9134699607921758 C-114.6103571617196 0.5094708761002947, -114.6103571617196 0.10547179140841367, -114.6103571617196 -0.9134699607921619 M-114.6103571617196 -0.9134699607921619 C-114.58106101134328 -1.3697811503303894, -114.55176486096695 -1.8260923398686169, -114.49330471905215 -2.7366562383689126 M-114.6103571617196 -0.9134699607921619 C-114.5791016439784 -1.4002998786112393, -114.54784612623719 -1.8871297964303164, -114.49330471905215 -2.7366562383689126 M-114.49330471905215 -2.7366562383689126 C-114.42554050437298 -3.2622221058628393, -114.3577762896938 -3.787787973356766, -114.25968082731183 -4.548597008451308 M-114.49330471905215 -2.7366562383689126 C-114.42844669911062 -3.239682233370659, -114.36358867916911 -3.742708228372406, -114.25968082731183 -4.548597008451308 M-114.25968082731183 -4.548597008451308 C-114.12600108778805 -5.2350142176828784, -113.9923213482643 -5.921431426914449, -113.91044549718197 -6.341846617754954 M-114.25968082731183 -4.548597008451308 C-114.16535427766588 -5.032943904959858, -114.07102772801996 -5.517290801468407, -113.91044549718197 -6.341846617754954 M-113.91044549718197 -6.341846617754954 C-113.75242637570292 -6.9444420138750305, -113.59440725422388 -7.547037409995107, -113.44703381154483 -8.10903621898441 M-113.91044549718197 -6.341846617754954 C-113.77491397793558 -6.858687040373423, -113.6393824586892 -7.37552746299189, -113.44703381154483 -8.10903621898441 M-113.44703381154483 -8.10903621898441 C-113.2465342017939 -8.712909098279615, -113.046034592043 -9.316781977574818, -112.87135002841818 -9.842904051007247 M-113.44703381154483 -8.10903621898441 C-113.21774037579127 -8.79963151452642, -112.9884469400377 -9.49022681006843, -112.87135002841818 -9.842904051007247 M-112.87135002841818 -9.842904051007247 C-112.73380060318362 -10.182653790673823, -112.59625117794907 -10.5224035303404, -112.18575975595066 -11.536325278988219 M-112.87135002841818 -9.842904051007247 C-112.63953795320022 -10.415484358577197, -112.40772587798226 -10.98806466614715, -112.18575975595066 -11.536325278988219 M-112.18575975595066 -11.536325278988219 C-111.98011596259289 -11.963349015967912, -111.77447216923512 -12.390372752947608, -111.3930802316305 -13.182341271863795 M-112.18575975595066 -11.536325278988219 C-111.98736489202594 -11.948296458897943, -111.78897002810123 -12.360267638807667, -111.3930802316305 -13.182341271863795 M-111.3930802316305 -13.182341271863795 C-111.06611267056931 -13.76290528558374, -110.7391451095081 -14.343469299303687, -110.49656874565237 -14.77418819684997 M-111.3930802316305 -13.182341271863795 C-111.14503169169176 -13.622776572163387, -110.896983151753 -14.063211872462977, -110.49656874565237 -14.77418819684997 M-110.49656874565237 -14.77418819684997 C-110.28841268252735 -15.093971807539365, -110.08025661940233 -15.41375541822876, -109.49990925601324 -16.305324813481835 M-110.49656874565237 -14.77418819684997 C-110.17457182116294 -15.268861941146657, -109.8525748966735 -15.763535685443346, -109.49990925601324 -16.305324813481835 M-109.49990925601324 -16.305324813481835 C-109.10932738729336 -16.82866893482622, -108.7187455185735 -17.352013056170605, -108.40719725033885 -17.7694593529739 M-109.49990925601324 -16.305324813481835 C-109.22429444572502 -16.6746235502423, -108.94867963543679 -17.043922287002758, -108.40719725033885 -17.7694593529739 M-108.40719725033885 -17.7694593529739 C-108.06859393328692 -18.167202076257652, -107.72999061623499 -18.5649447995414, -107.2229229166465 -19.160575372447518 M-108.40719725033885 -17.7694593529739 C-108.13677064733817 -18.087117828568122, -107.8663440443375 -18.404776304162343, -107.2229229166465 -19.160575372447518 M-107.2229229166465 -19.160575372447518 C-106.84993875788122 -19.5457121389416, -106.47695459911594 -19.93084890543568, -105.95195269219937 -20.47295647778522 M-107.2229229166465 -19.160575372447518 C-106.73557454246641 -19.663802580834105, -106.24822616828631 -20.16702978922069, -105.95195269219937 -20.47295647778522 M-105.95195269219937 -20.47295647778522 C-105.51511764805828 -20.86967850685226, -105.07828260391717 -21.2664005359193, -104.599509266272 -21.70120981352031 M-105.95195269219937 -20.47295647778522 C-105.6022079857465 -20.79058536644787, -105.25246327929364 -21.10821425511052, -104.599509266272 -21.70120981352031 M-104.599509266272 -21.70120981352031 C-104.21871626713366 -22.004882097005858, -103.83792326799531 -22.308554380491405, -103.17115011899966 -22.840288223236758 M-104.599509266272 -21.70120981352031 C-104.17925481923952 -22.036351551588197, -103.75900037220705 -22.371493289656083, -103.17115011899966 -22.840288223236758 M-103.17115011899966 -22.840288223236758 C-102.71780526161658 -23.156521970764626, -102.26446040423349 -23.47275571829249, -101.67274468450066 -23.885510989417448 M-103.17115011899966 -22.840288223236758 C-102.75201174593163 -23.13266100808129, -102.33287337286357 -23.42503379292582, -101.67274468450066 -23.885510989417448 M-101.67274468450066 -23.885510989417448 C-101.18953761884052 -24.17843395226053, -100.7063305531804 -24.471356915103616, -100.11045023211223 -24.832583067516595 M-101.67274468450066 -23.885510989417448 C-101.21899437083187 -24.160577096096294, -100.76524405716307 -24.43564320277514, -100.11045023211223 -24.832583067516595 M-100.11045023211223 -24.832583067516595 C-99.57891883766078 -25.109882655539806, -99.04738744320935 -25.38718224356302, -98.49068656485042 -25.677612735218943 M-100.11045023211223 -24.832583067516595 C-99.69277214065313 -25.050485460295217, -99.27509404919405 -25.268387853073843, -98.49068656485042 -25.677612735218943 M-98.49068656485042 -25.677612735218943 C-98.01274958487195 -25.889181258758626, -97.53481260489349 -26.100749782298305, -96.82010963906218 -26.417127584361612 M-98.49068656485042 -25.677612735218943 C-97.98189006265325 -25.902841853829646, -97.47309356045608 -26.128070972440348, -96.82010963906218 -26.417127584361612 M-96.82010963906218 -26.417127584361612 C-96.38575581911697 -26.57697380522415, -95.95140199917175 -26.73682002608669, -95.10558421367321 -27.04808878980405 M-96.82010963906218 -26.417127584361612 C-96.42907837030393 -26.561030705918075, -96.03804710154566 -26.70493382747454, -95.10558421367321 -27.04808878980405 M-95.10558421367321 -27.04808878980405 C-94.57909407245917 -27.20434830011323, -94.05260393124512 -27.360607810422415, -93.35415564142099 -27.56790359661233 M-95.10558421367321 -27.04808878980405 C-94.71731807526686 -27.163324141632504, -94.32905193686052 -27.278559493460957, -93.35415564142099 -27.56790359661233 M-93.35415564142099 -27.56790359661233 C-92.8063301655317 -27.692941186588737, -92.25850468964242 -27.817978776565145, -91.57302091798913 -27.97443597424536 M-93.35415564142099 -27.56790359661233 C-92.64713079439531 -27.729277404177633, -91.94010594736963 -27.89065121174294, -91.57302091798913 -27.97443597424536 M-91.57302091798913 -27.97443597424536 C-91.05601303609768 -28.058021799133563, -90.53900515420624 -28.14160762402177, -89.76949910800845 -28.266015393962512 M-91.57302091798913 -27.97443597424536 C-91.14179478617211 -28.044153271028936, -90.7105686543551 -28.113870567812516, -89.76949910800845 -28.266015393962512 M-89.76949910800845 -28.266015393962512 C-89.09074037447137 -28.331494432660023, -88.41198164093429 -28.396973471357537, -87.95100126945032 -28.441443693384585 M-89.76949910800845 -28.266015393962512 C-89.14172155746007 -28.32657633925095, -88.51394400691169 -28.38713728453938, -87.95100126945032 -28.441443693384585 M-87.95100126945032 -28.441443693384585 C-87.25498360133459 -28.46376362528485, -86.55896593321887 -28.48608355718512, -86.12500000000001 -28.5 M-87.95100126945032 -28.441443693384585 C-87.58549835068582 -28.453164660581088, -87.21999543192135 -28.464885627777594, -86.12500000000001 -28.5 M-86.12500000000001 -28.5 C-86.12500000000001 -28.5, -86.12500000000001 -28.5, -86.125 -28.5 M-86.12500000000001 -28.5 C-86.12500000000001 -28.5, -86.125 -28.5, -86.125 -28.5" stroke="#2E9E6B" stroke-width="2" fill="none" stroke-dasharray="0 0" style="fill:#F0FFF4 !important;stroke:#2E9E6B !important;stroke-width:2px !important"/></g><g class="label" style="color:#276749 !important" transform="translate(-100, -21)"><rect/><foreignObject width="200" height="42"><div style="color: rgb(39, 103, 73) !important; display: table; white-space: break-spaces; line-height: 1.5; max-width: 200px; text-align: center; width: 200px;" xmlns="http://www.w3.org/1999/xhtml"><span style="color:#276749 !important" class="nodeLabel"><p>Engagement Assumptions — Peerless (LangGraph run)</p></span></div></foreignObject></g></g></g></g></g><defs><filter id="my-svg-drop-shadow" height="130%" width="130%"><feDropShadow dx="4" dy="4" stdDeviation="0" flood-opacity="0.06" flood-color="#000000"/></filter></defs><defs><filter id="my-svg-drop-shadow-small" height="150%" width="150%"><feDropShadow dx="2" dy="2" stdDeviation="0" flood-opacity="0.06" flood-color="#000000"/></filter></defs><linearGradient id="my-svg-gradient" gradientUnits="objectBoundingBox" x1="0%" y1="0%" x2="100%" y2="0%"><stop offset="0%" stop-color="#2E9E6B" stop-opacity="1"/><stop offset="100%" stop-color="#ed1c24" stop-opacity="1"/></linearGradient></svg>